<svg width="58" height="69" viewBox="0 0 58 69" fill="none" xmlns="http://www.w3.org/2000/svg">
<path d="M32.0136 1.63067L31.7191 1.9002V4.6629V7.41211H31.1413C30.6316 7.41211 30.5183 7.46602 30.1784 7.87032L29.7933 8.32852V10.8217V13.3148L28.23 13.3688C26.8253 13.4092 26.6441 13.4496 26.3042 13.7191C25.6358 14.2852 25.6019 14.5008 25.6019 17.7621V20.7135L24.9108 20.8078C24.1179 20.9021 23.6761 21.1717 23.4042 21.6973C23.2343 22.0477 23.223 23.6109 23.223 39.4055V56.7363H16.7093H10.1956L10.9999 55.6313C12.9823 52.909 14.523 50.0654 15.0101 48.2057C16.0862 44.1896 13.8433 39.648 10.139 38.3273C9.07413 37.95 7.3296 38.0039 6.17413 38.4486C3.95382 39.3246 2.12999 41.6156 1.5296 44.3379C1.30304 45.3217 1.31436 47.0736 1.54093 47.99C1.79015 48.9873 2.50382 50.6449 3.28546 52.0195C3.94249 53.192 5.8003 55.9682 6.15147 56.3186C6.26475 56.4129 6.34405 56.5477 6.34405 56.615C6.34405 56.6824 5.40382 56.7363 4.24835 56.7363C2.29991 56.7363 2.14132 56.7498 1.92608 57.0059C1.64288 57.3428 1.63155 57.7066 1.90343 57.9896C2.096 58.2053 4.15772 58.2188 29.2382 58.2188C50.1952 58.2188 56.403 58.1783 56.505 58.057C56.7089 57.8145 56.6636 57.208 56.437 56.9654C56.2671 56.7768 55.9726 56.7363 54.7944 56.7363H53.3558V44.1492V31.5756L53.0612 31.2252C52.8233 30.9422 52.6421 30.8613 52.0757 30.8344L51.3733 30.7939L51.3167 29.7023C51.2601 28.6242 51.1468 28.2873 50.7503 28.0313C50.5124 27.883 40.9062 25.7402 40.453 25.7402C40.2265 25.7402 39.9773 25.875 39.7394 26.1311L39.3655 26.5219L39.3316 28.6916L39.2976 30.8613H38.5046C37.7683 30.8613 37.6776 30.8883 37.3718 31.2521L37.0433 31.643V44.1896V56.7363H30.7562H24.4691V54.5127V52.2891H29.2608C34.6191 52.2891 34.6304 52.2891 35.0382 51.3457C35.2081 50.9414 35.2308 50.5775 35.2081 48.8121L35.1741 46.7367L34.755 46.2785L34.3245 45.8203H29.3968H24.4691V44.1357V42.4512H29.2608C34.6191 42.4512 34.6304 42.4512 35.0382 41.5078C35.2081 41.1035 35.2308 40.7396 35.2081 38.9742L35.1741 36.8988L34.755 36.4406L34.3245 35.9824H29.3968H24.4691V34.2979V32.6133H29.2608C34.6191 32.6133 34.6304 32.6133 35.0382 31.6699C35.2081 31.2656 35.2308 30.9018 35.2081 29.1363L35.1741 27.0609L34.755 26.6027L34.3245 26.1445H29.3968H24.4577L24.4917 24.2848L24.5257 22.4385L33.962 22.398L43.387 22.3711V23.2471C43.387 24.0152 43.421 24.177 43.6702 24.46C43.8175 24.6486 43.9987 24.7969 44.0667 24.7969C44.1347 24.7969 44.3159 24.6486 44.4632 24.46C44.7237 24.1635 44.7464 24.0422 44.7464 22.8158C44.7464 20.9561 44.6898 20.8887 43.3757 20.8887H42.3675V18.0182C42.3675 15.5115 42.3335 15.0938 42.1523 14.5951C41.7898 13.6787 41.5405 13.5574 39.7167 13.4766L38.1194 13.4092L38.0628 10.8082L38.0062 8.19375L37.6323 7.80293C37.3378 7.4795 37.1679 7.41211 36.7034 7.41211H36.137V6.40137C36.137 5.56582 36.0917 5.33672 35.9105 5.1211C35.6386 4.79766 35.48 4.78418 35.1401 5.06719C34.9136 5.24239 34.8909 5.39063 34.8909 6.34747V7.41211H33.996H33.0898L33.0558 4.63594C33.0218 1.91367 33.0218 1.85977 32.7499 1.60371C32.4214 1.28028 32.3874 1.28028 32.0136 1.63067ZM36.8167 11.1182V13.3418H33.928H31.0394V11.2125C31.0394 10.04 31.0733 9.0293 31.1187 8.98887C31.1526 8.93496 32.4554 8.89454 34.0073 8.89454H36.8167V11.1182ZM40.9855 17.8834L41.0081 20.7539H33.928H26.848V17.9508C26.848 16.401 26.8819 15.0938 26.9273 15.0533C26.9612 14.9994 30.1444 14.9725 33.9733 14.9859L40.9515 15.0264L40.9855 17.8834ZM49.8214 29.3115C50.0366 29.3789 50.0706 29.4732 50.0706 30.0527V30.7266H45.3694H40.6683V29.0016V27.2766L45.1202 28.2604C47.5558 28.7994 49.6741 29.2711 49.8214 29.3115ZM33.928 29.3115V30.9287L29.2042 30.9691L24.4691 30.9961V29.3115V27.627L29.2042 27.6539L33.928 27.6943V29.3115ZM52.1097 44.54V56.7363H45.1995H38.2894V44.54V32.3438H45.1995H52.1097V44.54ZM33.928 39.1494V40.7666L29.2042 40.807L24.4691 40.834V39.1494V37.4648L29.2042 37.4918L33.928 37.5322V39.1494ZM9.99171 39.8906C11.9968 40.6184 13.4468 42.5455 13.9112 45.0926C14.2284 46.858 13.8319 48.4078 12.4046 50.9414C11.2605 52.9764 8.59835 56.7363 8.30382 56.7363C8.22452 56.7363 7.59015 55.9682 6.89913 55.0248C4.07843 51.1705 2.60577 48.1922 2.60577 46.3055C2.60577 45.4025 2.87765 44.0818 3.22882 43.2598C3.61397 42.3568 4.73546 40.9688 5.44913 40.4971C6.85382 39.5941 8.55304 39.365 9.99171 39.8906ZM33.928 48.9873V50.6045L29.2042 50.6449L24.4691 50.6719V48.9873V47.3027L29.2042 47.3297L33.928 47.3701V48.9873Z" fill="#23365E"/>
<path d="M40.1924 34.3518L39.8186 34.7426L39.7846 36.7506C39.7619 38.5564 39.7733 38.7855 39.9885 39.1898C40.1131 39.4324 40.351 39.6885 40.5096 39.7559C40.6682 39.8367 41.4385 39.8906 42.2315 39.8906C44.5084 39.8906 44.6897 39.6346 44.6104 36.4811L44.5764 34.7426L44.2025 34.3518L43.84 33.9609H42.1975H40.5549L40.1924 34.3518ZM43.2736 36.8584V38.2734H42.1975H41.1213V36.8584V35.4434H42.1975H43.2736V36.8584Z" fill="#23365E"/>
<path d="M46.2074 34.3517L45.8789 34.7425V36.9257C45.8789 39.028 45.8902 39.1089 46.1508 39.4189C46.5133 39.8366 46.9438 39.9175 48.5977 39.8636L49.9797 39.8232L50.3082 39.3784L50.6367 38.9472V36.9796C50.6367 34.0282 50.5801 33.9608 48.1332 33.9608H46.5359L46.2074 34.3517ZM49.368 36.8853L49.402 38.2733H48.2578H47.125V36.8583V35.4298L48.2352 35.4702L49.334 35.5107L49.368 36.8853Z" fill="#23365E"/>
<path d="M40.1926 42.0334L39.8187 42.4242L39.7848 44.3109C39.7281 47.3297 39.898 47.5723 42.2203 47.5723C44.4746 47.5723 44.6785 47.2893 44.6105 44.2301L44.5765 42.4242L44.2027 42.0334L43.8402 41.6426H42.1976H40.5551L40.1926 42.0334ZM43.2738 44.54V45.9551H42.1976H41.1215V44.54V43.125H42.1976H43.2738V44.54Z" fill="#23365E"/>
<path d="M46.2074 42.0335L45.8789 42.4243V44.5805C45.8789 46.6559 45.8902 46.7368 46.1508 47.0737C46.502 47.5184 46.9211 47.5993 48.5977 47.5454L49.9797 47.5049L50.3082 47.0602L50.6367 46.629V44.6614C50.6367 41.71 50.5801 41.6426 48.1332 41.6426H46.5359L46.2074 42.0335ZM49.368 44.567L49.402 45.9551H48.2578H47.125V44.5401V43.1116L48.2352 43.152L49.334 43.1924L49.368 44.567Z" fill="#23365E"/>
<path d="M40.3621 49.4859C39.8977 49.7555 39.7617 50.3619 39.7617 52.2082C39.7617 55.0248 39.9543 55.2539 42.2199 55.2539C44.4742 55.2539 44.6781 54.9709 44.6102 51.9117L44.5762 50.1059L44.2023 49.715L43.8398 49.3242L42.2199 49.3377C41.3363 49.3377 40.498 49.4051 40.3621 49.4859ZM43.2734 52.2217V53.6367H42.1973H41.1211V52.2217V50.8066H42.1973H43.2734V52.2217Z" fill="#23365E"/>
<path d="M46.2074 49.7151L45.8789 50.1059V52.2621C45.8789 54.3914 45.8789 54.4049 46.1734 54.7553C46.5359 55.2 47.091 55.2944 48.7109 55.227C49.8891 55.1865 49.9684 55.1596 50.2629 54.8092C50.5801 54.4453 50.5801 54.4184 50.6141 52.4778C50.6707 49.3782 50.6367 49.3242 48.2238 49.3242H46.5359L46.2074 49.7151ZM49.368 52.2487L49.402 53.6367H48.2578H47.125V52.2217V50.7932L48.2352 50.8336L49.334 50.874L49.368 52.2487Z" fill="#23365E"/>
<path d="M7.55656 42.1818C6.51438 42.4917 5.63078 43.3947 5.18899 44.5671C4.8718 45.4162 4.88313 46.7773 5.21164 47.6937C5.56281 48.664 6.50305 49.6613 7.34133 49.9443C8.89328 50.4833 10.5472 49.6478 11.3062 47.9228C11.5667 47.3298 11.612 47.0738 11.612 46.09C11.612 44.8367 11.4308 44.2572 10.7511 43.3408C10.0827 42.4244 8.58742 41.8853 7.55656 42.1818ZM9.28977 43.9337C10.921 44.9175 10.6718 47.8419 8.90461 48.4484C6.45774 49.2839 5.155 45.3083 7.42063 43.8933C7.89641 43.5833 8.75734 43.6103 9.28977 43.9337Z" fill="#23365E"/>
<path d="M10.909 1.81939C10.2973 2.12935 10.1953 2.5606 10.1953 4.85162V6.8731H9.23242C8.07695 6.8731 7.56719 7.08873 7.25 7.70865C7.02344 8.15337 7.02344 8.35552 7.02344 21.6569C7.02344 33.7454 7.04609 35.1739 7.20469 35.3626C7.44258 35.6456 7.85039 35.6321 8.07695 35.3356C8.2582 35.1065 8.26953 33.9745 8.26953 21.7917V8.49029L16.9129 8.51724L25.5449 8.55767L25.5789 10.0266C25.5902 10.8487 25.6695 11.5899 25.7375 11.6842C25.9187 11.9403 26.4398 11.8999 26.6664 11.6034C26.8363 11.3743 26.859 11.1047 26.825 9.64927L26.791 7.95123L26.3605 7.45259L25.9414 6.94048L24.752 6.90005L23.5625 6.84615V4.66294C23.5625 2.62798 23.5512 2.45279 23.3246 2.16978C23.2 2.00806 22.9621 1.81939 22.8035 1.73853C22.6449 1.67115 20.1414 1.61724 16.9016 1.61724C12.359 1.63072 11.2035 1.65767 10.909 1.81939ZM22.3164 5.05376V6.8731H16.9355H11.5547V5.05376V3.23443H16.9355H22.3164V5.05376Z" fill="#23365E"/>
<path d="M44.8592 8.67891C44.1116 8.93496 43.8397 9.0832 43.2959 9.55488C42.6502 10.1209 42.503 10.5252 42.7522 10.9834C43.0014 11.4281 43.4206 11.4281 43.885 10.9564C45.0405 9.79746 46.7737 9.82441 47.8499 11.0238C48.2124 11.4416 48.7108 12.5871 48.7108 13.0318C48.7108 13.207 48.8127 13.4631 48.926 13.5979C49.1073 13.8135 49.2545 13.8539 49.753 13.7865C50.2401 13.7326 50.4667 13.773 50.8292 13.9887C51.5655 14.4334 52.0186 15.5789 51.7807 16.3471L51.6561 16.7109H48.8467C46.2639 16.7109 46.0147 16.7379 45.8448 16.9535C45.5956 17.2904 45.6069 17.6004 45.8788 17.9238C46.094 18.1799 46.2526 18.1934 50.1042 18.1934C53.5366 18.1934 54.137 18.1664 54.3522 17.9777C54.6241 17.7621 54.6694 17.3848 54.4881 16.967C54.3862 16.7648 54.2389 16.7109 53.7518 16.7109H53.1288V15.9967C53.1288 14.5143 52.4944 13.2609 51.4069 12.6141C51.0784 12.4254 50.6252 12.2637 50.3987 12.2637C49.9909 12.2637 49.9569 12.2232 49.6963 11.5359C48.8354 9.3123 46.7057 8.05898 44.8592 8.67891Z" fill="#23365E"/>
<path d="M10.5578 11.8055C10.3199 12.0076 10.3086 12.0885 10.3086 14.4199C10.3086 16.7514 10.3199 16.8322 10.5578 17.0344C10.7844 17.223 11.5773 17.25 16.9582 17.25C22.9621 17.25 23.1094 17.25 23.3359 16.9805C23.5398 16.7379 23.5625 16.5357 23.5625 14.4199C23.5625 12.3041 23.5398 12.102 23.3359 11.8594C23.1094 11.5898 22.9621 11.5898 16.9582 11.5898C11.5773 11.5898 10.7844 11.6168 10.5578 11.8055ZM22.2031 14.3525V15.6328H16.8789H11.5547V14.4469C11.5547 13.7865 11.5887 13.207 11.634 13.1666C11.668 13.1127 14.0695 13.0723 16.9582 13.0723H22.2031V14.3525Z" fill="#23365E"/>
<path d="M10.5012 20.3227C10.3426 20.5383 10.3086 20.9156 10.3086 22.8563C10.3086 24.6217 10.3426 25.2146 10.4672 25.4168C10.6258 25.6594 10.8184 25.6729 15.8027 25.6729C20.7871 25.6729 20.9797 25.6594 21.1383 25.4168C21.3535 25.0529 21.3422 24.716 21.0703 24.3926C20.8551 24.1365 20.6965 24.123 16.1992 24.123H11.5434L11.5773 22.8697L11.6113 21.6299L16.3465 21.5625C20.3906 21.5086 21.093 21.4682 21.1836 21.293C21.3535 20.9695 21.3195 20.5518 21.093 20.3092C20.9004 20.107 20.368 20.0801 15.7801 20.0801C10.9883 20.0801 10.6711 20.0936 10.5012 20.3227Z" fill="#23365E"/>
<path d="M10.5017 28.8129C10.2298 29.1767 10.2184 33.5566 10.4903 33.8801C10.6489 34.0687 11.2833 34.0957 15.8032 34.0957C21.388 34.0957 21.2974 34.1092 21.2974 33.3545C21.2974 32.6267 21.1954 32.6133 16.177 32.6133H11.5552V31.333V30.0527H16.2337C20.629 30.0527 20.9349 30.0392 21.1048 29.8101C21.354 29.4867 21.3427 29.0689 21.0934 28.7994C20.9009 28.5972 20.3684 28.5703 15.7806 28.5703C10.9888 28.5703 10.6716 28.5838 10.5017 28.8129Z" fill="#23365E"/>
<path d="M11.963 37.2762C11.7025 37.5727 11.7365 38.0848 12.031 38.3273C12.2462 38.516 12.8693 38.543 16.5396 38.543C20.2099 38.543 20.833 38.516 21.0482 38.3273C21.3201 38.1117 21.3654 37.7344 21.1841 37.3166C21.0708 37.074 20.9009 37.0605 16.5962 37.0605C12.6994 37.0605 12.1103 37.0875 11.963 37.2762Z" fill="#23365E"/>
<path d="M16.7204 41.2787C16.4825 41.4943 16.4485 42.0873 16.6524 42.3838C16.7657 42.5455 17.1622 42.5859 18.8614 42.5859C20.7192 42.5859 20.9458 42.559 21.1044 42.3434C21.3536 42.0199 21.3423 41.6021 21.0931 41.3326C20.9118 41.1305 20.5833 41.1035 18.9067 41.1035C17.4341 41.1035 16.8677 41.1439 16.7204 41.2787Z" fill="#23365E"/>
<path d="M16.7091 45.7395C16.3919 46.1168 16.4372 46.5481 16.8337 46.8445C17.0376 47.0197 17.4454 47.0467 19.0314 47.0063C20.7986 46.9658 20.9911 46.9389 21.1384 46.7098C21.3763 46.319 21.331 45.8607 21.0478 45.6316C20.8439 45.4565 20.4247 45.416 18.8841 45.416C17.0263 45.416 16.9697 45.4295 16.7091 45.7395Z" fill="#23365E"/>
<path d="M16.6524 49.7959C16.4485 50.0924 16.4825 50.6854 16.7204 50.901C16.8677 51.0357 17.4341 51.0762 18.9181 51.0762C20.7192 51.0762 20.9458 51.0492 21.1044 50.8336C21.3423 50.5236 21.3536 50.0789 21.1157 49.8094C20.8552 49.4994 16.8677 49.4859 16.6524 49.7959Z" fill="#23365E"/>
<path d="M1.89168 61.6957C1.64246 62.0326 1.65379 62.3426 1.92566 62.666C2.12957 62.9086 2.29949 62.9355 3.4323 62.9355C4.84832 62.9355 5.09754 62.8143 5.09754 62.1135C5.09754 61.5205 4.91629 61.4531 3.45496 61.4531C2.26551 61.4531 2.05027 61.4801 1.89168 61.6957Z" fill="#23365E"/>
<path d="M8.51889 61.6148C8.31498 61.8574 8.3603 62.4639 8.58686 62.7064C8.76811 62.9086 9.13061 62.9355 11.249 62.9355C13.5599 62.9355 13.7185 62.9221 13.9337 62.666C14.2056 62.3426 14.2169 62.1539 13.979 61.7496C13.8091 61.4531 13.7638 61.4531 11.2263 61.4531C9.37983 61.4531 8.62084 61.4936 8.51889 61.6148Z" fill="#23365E"/>
<path d="M17.5251 61.6957C17.2759 62.0191 17.2872 62.4369 17.5364 62.7064C17.7177 62.9086 18.0802 62.9355 20.2552 62.9355C22.7134 62.9355 22.7587 62.9355 22.9286 62.6391C23.1665 62.2482 23.1552 61.9518 22.906 61.6822C22.7247 61.4801 22.3622 61.4531 20.1985 61.4531C17.9329 61.4531 17.695 61.4801 17.5251 61.6957Z" fill="#23365E"/>
<path d="M26.463 61.7496C26.2252 62.1539 26.2365 62.3426 26.5084 62.666C26.7236 62.9221 26.8822 62.9355 29.2044 62.9355C31.4587 62.9355 31.6966 62.9086 31.8666 62.693C32.0931 62.3965 32.1158 61.8439 31.9232 61.6148C31.8212 61.4936 31.0623 61.4531 29.2158 61.4531C26.6783 61.4531 26.633 61.4531 26.463 61.7496Z" fill="#23365E"/>
<path d="M35.4798 61.6148C35.2759 61.8574 35.3212 62.4639 35.5478 62.7064C35.729 62.9086 36.0915 62.9355 38.1872 62.9355C40.838 62.9355 41.0419 62.8816 41.0419 62.2213C41.0419 61.4666 40.9853 61.4531 38.1872 61.4531C36.3408 61.4531 35.5818 61.4936 35.4798 61.6148Z" fill="#23365E"/>
<path d="M44.4743 61.6687C44.2364 61.9518 44.2477 62.4369 44.497 62.7064C44.6782 62.9086 45.0407 62.9355 47.1591 62.9355C49.47 62.9355 49.6286 62.9221 49.8438 62.666C50.127 62.3291 50.1384 61.9652 49.8665 61.6822C49.6852 61.4801 49.3227 61.4531 47.1477 61.4531C45.0294 61.4531 44.6216 61.4801 44.4743 61.6687Z" fill="#23365E"/>
<path d="M53.424 61.7496C53.1861 62.1539 53.1974 62.3426 53.4693 62.666C53.6732 62.9086 53.8431 62.9355 54.9873 62.9355C56.4146 62.9355 56.6412 62.8277 56.6412 62.1404C56.6412 61.5205 56.4826 61.4531 54.9873 61.4531C53.6732 61.4531 53.5826 61.4666 53.424 61.7496Z" fill="#23365E"/>
<path d="M1.9265 66.3047C1.564 66.736 1.6433 67.1942 2.11908 67.5041C2.30033 67.6119 9.21049 67.6524 29.2499 67.6524C58.8843 67.6524 56.6413 67.7197 56.6413 66.8438C56.6413 65.9678 58.8956 66.0352 29.148 66.0352C2.30033 66.0352 2.15307 66.0352 1.9265 66.3047Z" fill="#23365E"/>
</svg>
