<svg width="74" height="77" viewBox="0 0 74 77" fill="none" xmlns="http://www.w3.org/2000/svg">
<path d="M36.3205 8.78281L35.9158 9.14375L35.8724 15.0842L35.8291 21.0246L26.4635 26.7545L17.1123 32.4844H9.14862C3.9744 32.4844 1.04042 32.5445 0.780259 32.6348C-0.0146624 32.9506 -0.217006 33.6574 0.303306 34.3492C0.563463 34.6951 0.707994 34.7402 1.45956 34.7402H2.31229V45.2225C2.32674 56.3664 2.29784 55.9904 3.00604 56.3814C3.41073 56.607 4.11893 56.3664 4.33573 55.9303C4.42245 55.7648 4.48026 51.6141 4.48026 45.2074V34.7402H12.0537H19.6271L19.6849 36.8457C19.7428 39.3572 19.815 39.5076 21.1447 39.658L21.9685 39.7482V50.6215V61.5098H19.5838H17.199V57.0281V52.5314L16.8666 52.2156C16.5342 51.8998 16.4185 51.8848 13.1955 51.8848H9.84237L9.55331 52.2758C9.26424 52.6668 9.24979 52.8473 9.24979 57.0883V61.5098H6.86503H4.48026V60.6977C4.48026 59.66 4.10448 59.1035 3.39628 59.1035C3.0494 59.1035 2.8326 59.2088 2.61581 59.4945C2.32674 59.8705 2.31229 60.0811 2.31229 63.1039V66.3223H1.51737C0.852525 66.3223 0.650181 66.3824 0.361119 66.6982C-0.0724749 67.1344 -0.101381 67.6607 0.2744 68.142L0.549009 68.5029H36.9998H73.4506L73.7252 68.142C74.101 67.6607 74.0721 67.1344 73.6385 66.6982C73.3494 66.3824 73.147 66.3223 72.4822 66.3223H71.6873V53.4789C71.6873 40.7258 71.6873 40.6506 71.3838 40.2445C70.9935 39.7332 70.2709 39.7031 69.8373 40.1994L69.5193 40.5453V51.0275V61.5098H67.1346H64.7498V57.0883C64.7498 52.8473 64.7353 52.6668 64.4463 52.2758L64.1572 51.8848H60.7896C57.4654 51.8848 57.4221 51.8848 57.1185 52.2307C56.8006 52.5766 56.8006 52.6668 56.8006 57.0432V61.5098H54.4158H52.031V50.6215V39.7482L52.8549 39.658C54.1846 39.5076 54.2568 39.3572 54.3146 36.8457L54.3724 34.7402H61.9459H69.5193V35.6125C69.5193 36.3344 69.5771 36.5449 69.8517 36.8156C70.3287 37.2818 71.008 37.2518 71.3838 36.7555C71.6006 36.4547 71.6873 36.1389 71.6873 35.5523V34.7402H72.54C73.2916 34.7402 73.4361 34.6951 73.6963 34.3492C74.2166 33.6574 74.0142 32.9506 73.2193 32.6348C72.9592 32.5445 70.0252 32.4844 64.851 32.4844H56.8873L47.5217 26.7545L38.156 21.0246V19.4605V17.8965H41.8416C45.2959 17.8965 45.5416 17.8814 45.8017 17.6107C46.2209 17.1746 46.2787 16.6332 46.2209 13.3396L46.1775 10.3469L45.7728 9.98594L45.3681 9.625H41.6826C38.156 9.625 38.0115 9.60996 38.0115 9.33926C38.0115 8.99336 37.3611 8.42188 36.9853 8.42188C36.8408 8.42188 36.5373 8.58731 36.3205 8.78281ZM44.0818 13.7607V15.6406H41.1189H38.156V13.7607V11.8809H41.1189H44.0818V13.7607ZM44.8767 27.7471L52.4935 32.4092L44.7467 32.4543C40.483 32.4693 33.5166 32.4693 29.2529 32.4543L21.5205 32.4092L29.1517 27.717C33.3431 25.1303 36.8842 23.0398 37.0142 23.0549C37.1588 23.0699 40.6853 25.1754 44.8767 27.7471ZM52.1467 36.0486L52.19 37.2969H36.9998H21.824V36.1238C21.824 35.4771 21.8674 34.8906 21.9252 34.8455C21.9685 34.7854 28.7904 34.7553 37.0576 34.7703L52.1033 34.8154L52.1467 36.0486ZM26.5935 50.6064V61.5098H25.365H24.1365V50.6064V39.7031H25.365H26.5935V50.6064ZM33.531 42.7861V45.8691L31.1896 45.8391L28.8338 45.7939L28.7904 42.741L28.7615 39.7031H31.1463H33.531V42.7861ZM38.2717 50.5613L38.2283 61.4346H36.9998H35.7713L35.7279 50.5613L35.699 39.7031H36.9998H38.3006L38.2717 50.5613ZM45.2092 42.741L45.1658 45.7939L42.8244 45.8391L40.4685 45.8691V42.7861V39.7031H42.8533H45.2381L45.2092 42.741ZM49.8631 50.6064V61.5098H48.6346H47.406V50.6064V39.7031H48.6346H49.8631V50.6064ZM33.531 50.0049V51.8848L31.1896 51.8547L28.8338 51.8096L28.7904 49.9598L28.7471 48.125H31.1463H33.531V50.0049ZM45.2092 49.9598L45.1658 51.8096L42.8244 51.8547L40.4685 51.8848V50.0049V48.125H42.8533H45.2525L45.2092 49.9598ZM15.031 57.8252V61.5098H13.2244H11.4178V57.8252V54.1406H13.2244H15.031V57.8252ZM33.531 57.8252V61.5098H31.1463H28.7615V57.8252V54.1406H31.1463H33.531V57.8252ZM45.2381 57.8252V61.5098H42.8533H40.4685V57.8252V54.1406H42.8533H45.2381V57.8252ZM62.5818 57.8252V61.5098H60.7752H58.9685V57.8252V54.1406H60.7752H62.5818V57.8252ZM19.656 65.0439V66.3223H12.0681H4.48026V65.0439V63.7656H12.0681H19.656V65.0439ZM52.1756 65.0439V66.3223H36.9998H21.824V65.0439V63.7656H36.9998H52.1756V65.0439ZM69.5193 65.0439V66.3223H61.9314H54.3435V65.0439V63.7656H61.9314H69.5193V65.0439Z" fill="#23365E"/>
<path d="M11.9238 38.831C11.3168 39.0565 10.4496 39.7483 10.0305 40.3349C9.40898 41.2071 9.25 42.0944 9.25 44.7563C9.25 47.1325 9.26445 47.2227 9.59687 47.6288L9.94375 48.0499L12.9789 48.095C16.332 48.1401 16.968 48.0349 17.127 47.328C17.1848 47.1325 17.1992 45.764 17.1703 44.2751C17.127 41.7636 17.098 41.538 16.7656 40.8612C16.3609 40.019 15.6672 39.3272 14.8289 38.9362C14.1641 38.6204 12.6465 38.5753 11.9238 38.831ZM14.1352 41.1169C14.8723 41.538 15.0312 42.0343 15.0312 44.0194V45.8692H13.2246H11.418V44.1397C11.418 42.2448 11.548 41.7786 12.2273 41.2222C12.6754 40.8612 13.6148 40.8011 14.1352 41.1169Z" fill="#23365E"/>
<path d="M59.1713 38.9212C58.333 39.3423 57.6393 40.019 57.2346 40.8612C56.9021 41.538 56.8732 41.7636 56.8299 44.2751C56.801 45.764 56.8154 47.1325 56.8732 47.328C57.0322 48.0349 57.6682 48.1401 61.0213 48.095L64.0564 48.0499L64.4178 47.6138C64.7646 47.1776 64.7791 47.1776 64.7213 44.4556C64.6779 42.0644 64.6346 41.6433 64.3744 41.0417C64.0131 40.2446 63.2182 39.3874 62.4666 39.0114C61.6717 38.6054 59.9229 38.5602 59.1713 38.9212ZM61.7729 41.2222C62.4521 41.7786 62.5822 42.2448 62.5822 44.1397V45.8692H60.7756H58.9689V44.0194C58.9689 42.0343 59.1279 41.538 59.865 41.1169C60.3854 40.8011 61.3248 40.8612 61.7729 41.2222Z" fill="#23365E"/>
</svg>
