<svg width="71" height="83" viewBox="0 0 71 83" fill="none" xmlns="http://www.w3.org/2000/svg">
<path d="M47.7725 12.4986C42.0869 13.1957 36.1379 16.5514 32.1996 21.285L31.2012 22.5008V28.3529C31.2012 33.9619 31.215 34.2213 31.4785 34.5293C31.6311 34.7076 31.9084 34.8859 32.1025 34.9508C32.477 35.0643 32.4631 35.0643 34.7512 33.2648C36.443 31.9355 38.7311 30.5738 40.5338 29.8443L41.7402 29.358V31.7086V34.0754L42.1424 34.5455C42.3643 34.8049 42.6555 35.0156 42.7803 35.0156C43.1131 35.0156 43.7787 34.5779 43.8758 34.2861C43.9174 34.1402 43.959 32.8271 43.959 31.3682C43.959 28.3205 43.7787 28.6609 45.6092 28.2881C47.8695 27.818 50.74 27.6559 52.9727 27.8666C54.8586 28.0449 56.9109 28.3853 57.5627 28.6123C57.8123 28.7096 57.8262 29.0014 57.8262 34.0754V39.425L57.1744 39.3277C54.5674 38.9225 52.1406 38.809 51.7246 39.0684C51.3779 39.2791 51.1561 40.1221 51.3086 40.6084C51.5305 41.2893 51.9604 41.4514 53.7354 41.5648C54.6506 41.6135 55.9402 41.7432 56.6197 41.8404L57.8262 42.035V47.4656V52.8963L57.2437 52.7828C56.9109 52.7342 54.6229 52.6369 52.1406 52.5883C47.1068 52.4748 46.7602 52.5234 46.4967 53.4475C46.3025 54.0797 46.5938 54.9064 47.0375 55.0199C47.2178 55.0686 49.4227 55.1334 51.9326 55.182C54.4564 55.2307 56.8 55.3279 57.1744 55.3766L57.8262 55.49V61.7799V68.0859H53.2639C50.7539 68.0859 48.5906 68.1346 48.4658 68.1832C48.1469 68.3291 47.8002 69.1883 47.8973 69.6422C47.9527 69.8529 48.1191 70.1771 48.2855 70.3555C48.5768 70.6797 48.7293 70.6797 58.8939 70.6797H69.2111L69.5439 70.2744L69.8906 69.8854V46.2012V22.5332L69.3082 21.7713C67.6025 19.6152 64.6072 17.0215 62.1389 15.5787C57.7014 12.985 52.6676 11.8988 47.7725 12.4986ZM54.4287 15.3193C55.1221 15.4652 56.1621 15.7246 56.7584 15.9029L57.8262 16.2434V21.0904C57.8262 24.8676 57.7846 25.9375 57.6598 25.9375C57.5627 25.9375 56.9525 25.824 56.3146 25.6943C54.082 25.2404 51.0729 25.0621 48.757 25.2729C47.5922 25.3701 46.1084 25.5646 45.4705 25.6943C44.8326 25.824 44.2225 25.9375 44.1254 25.9375C43.9867 25.9375 43.959 24.8838 43.9867 20.9445L44.0283 15.9678L45.415 15.6111C46.1777 15.4166 47.3287 15.1734 47.9805 15.0924C49.5475 14.8816 52.8756 14.9951 54.4287 15.3193ZM41.7402 21.8686V26.7156L41.2965 26.8291C39.8682 27.1857 35.9299 29.2445 34.1826 30.5414L33.4199 31.125V27.3479V23.5545L34.4322 22.4359C35.5277 21.2039 36.651 20.1502 37.8852 19.2262C38.8143 18.5291 41.3242 17.0377 41.5738 17.0215C41.6986 17.0215 41.7402 18.0914 41.7402 21.8686ZM61.6812 18.2373C63.484 19.3396 65.0371 20.6365 66.5209 22.2738L67.6719 23.5383V27.0074C67.6719 28.9203 67.6441 30.4766 67.6025 30.4766C67.5609 30.4766 66.9785 30.1199 66.3129 29.6822C64.8707 28.7258 62.541 27.5586 61.0988 27.0398L60.0449 26.667V21.9982C60.0449 19.4369 60.0865 17.3457 60.1559 17.3457C60.2113 17.3457 60.8908 17.751 61.6812 18.2373ZM63.9971 31.2061C64.843 31.6762 66.0078 32.4381 66.6041 32.892L67.6719 33.7188V38.0309C67.6719 42.0674 67.658 42.343 67.4361 42.2295C66.2574 41.7107 63.5811 40.7705 61.9863 40.3328L60.0449 39.7979V34.5779V29.358L61.2652 29.8443C61.9309 30.1199 63.165 30.7359 63.9971 31.2061ZM62.6242 43.2021C63.6227 43.5102 65.051 44.0127 65.8137 44.3369C66.5625 44.6611 67.2975 44.9691 67.4361 45.0178C67.658 45.0988 67.6719 45.4717 67.6719 49.7676V54.4201L65.8414 54.0311C64.8291 53.8203 63.1234 53.5285 62.0557 53.3664L60.1143 53.0908L60.0727 47.7736L60.0449 42.4727L60.4193 42.5699C60.6412 42.6186 61.6258 42.9104 62.6242 43.2021ZM64.0664 56.3168C65.2451 56.5437 66.5486 56.8031 66.9508 56.9004L67.6719 57.0949V62.5904V68.0859H63.8584H60.0449V61.9096V55.717L60.9879 55.8305C61.501 55.8791 62.8877 56.1061 64.0664 56.3168Z" fill="#23365E"/>
<path d="M1.4002 29.277C1.01192 29.8443 1.03966 30.3469 1.44181 30.9143L1.77462 31.3682L5.46329 31.4168C7.4879 31.4492 9.15196 31.4816 9.15196 31.5141C9.15196 31.5303 10.5941 38.6307 12.3414 47.2711C14.8236 59.4941 15.6002 63.0443 15.8082 63.3037C16.0856 63.6279 16.2381 63.6279 30.9373 63.6279H45.7891L46.0525 63.2389C46.3576 62.8012 46.3992 61.9582 46.1219 61.5043C45.9277 61.1963 45.5811 61.1963 31.6723 61.1152L17.4168 61.0342L17.2365 60.2236C17.1395 59.7697 17.0563 59.2834 17.0563 59.1375C17.0563 58.8619 17.7358 58.8457 28.3442 58.8133C39.1467 58.7646 39.6459 58.7484 39.9233 58.4566C40.2838 58.0676 48.2574 39.8303 48.2574 39.3764C48.2574 39.198 48.0772 38.8252 47.8553 38.5658L47.4531 38.0957H30.1053C13.7143 38.0957 12.7713 38.0795 12.702 37.8039C12.6742 37.658 12.2859 35.7775 11.8561 33.6377C11.4262 31.4816 10.9686 29.5687 10.8299 29.3418L10.5803 28.9365L6.12891 28.8879L1.69141 28.8555L1.4002 29.277ZM45.2066 40.8516C45.2066 40.9326 43.709 44.418 41.8924 48.5842L38.5643 56.1709H27.4983H16.4322L14.8791 48.5518C14.0193 44.3531 13.326 40.884 13.3121 40.8029C13.3121 40.7381 20.4953 40.6895 29.2594 40.6895C39.7291 40.6895 45.2066 40.7381 45.2066 40.8516Z" fill="#23365E"/>
<path d="M18.0272 66.4161C17.0149 67.0321 16.6405 68.4263 17.1952 69.5124C17.9856 71.0362 19.7329 71.0362 20.5233 69.5124C21.4663 67.6968 19.6497 65.4272 18.0272 66.4161Z" fill="#23365E"/>
<path d="M39.6593 66.4161C38.2587 67.2591 38.2032 69.3989 39.5484 70.3554C40.4359 70.9876 41.573 70.6148 42.1554 69.5124C43.0984 67.6968 41.2818 65.4273 39.6593 66.4161Z" fill="#23365E"/>
</svg>
