<svg width="267" height="65" viewBox="0 0 267 65" fill="none" xmlns="http://www.w3.org/2000/svg">
<path d="M0 0V64.8012H15.9284V15.9021H112.096V24.4495H31.4586V40.3517H128.025V0H0Z" fill="#081D70"/>
<path d="M155.302 15.9021H267V0H139.374V64.8012H267V24.4495H174.018V40.3517H250.872V48.7003H155.302V15.9021Z" fill="#081D70"/>
<path d="M217.821 38.5627L225.188 40.3517H250.872V46.315L255.85 47.5076L251.868 64.8012H267V24.2508H232.156L217.821 38.5627ZM256.447 0L240.519 15.9021H267V0H256.447Z" fill="url(#paint0_linear_13_740)"/>
<path d="M51.7671 0L53.9572 0.397553L128.223 17.6911V0H54.1564H51.7671ZM139.373 0V20.2752L155.302 24.052V15.9021H240.519L256.447 0H139.373ZM174.018 28.4251L217.821 38.5627L232.156 24.2508H174.018V28.4251Z" fill="url(#paint1_linear_13_740)"/>
<path d="M217.821 38.5627L216.029 40.3517H225.187L217.821 38.5627ZM250.872 46.315V48.7003H207.666L191.738 64.6024H251.868L255.85 47.3089L250.872 46.315Z" fill="url(#paint2_linear_13_740)"/>
<path d="M51.7673 0H0V64.8012H15.9284V15.9021H45.5951H111.897V24.2508H41.2148H31.2595V40.1529H32.8523H128.025V17.6911L53.7584 0.397553L51.7673 0ZM155.302 24.052L139.374 20.2752V64.6024H191.738L207.667 48.7003H155.302V24.052ZM174.018 28.4251V40.3517H216.029L217.821 38.5627L174.018 28.4251Z" fill="url(#paint3_linear_13_740)"/>
<path d="M39.8214 53.6697C39.8214 56.6514 38.4276 58.0428 35.8393 58.0428H33.8482V64.6024H32.2554V48.5015H35.8393C38.4276 48.5015 39.8214 49.893 39.8214 52.8746V53.6697ZM38.0294 53.6697V53.2722C38.0294 52.0795 37.8303 51.4832 37.4321 50.8868C37.0339 50.4893 36.4366 50.0917 35.4411 50.0917H33.6491V56.6514H35.4411C36.4366 56.6514 37.0339 56.4526 37.4321 55.8563C37.8303 55.4587 38.0294 54.6636 38.0294 53.6697Z" fill="#0D0D0C"/>
<path d="M48.7808 64.8012H46.9888L44.2013 57.6453H42.4094V64.8012H40.8166V48.7003H44.5996C45.7942 48.7003 46.7897 49.0979 47.387 49.893C47.9843 50.6881 48.3826 51.6819 48.3826 52.8746V53.2722C48.3826 55.4587 47.5861 56.6514 45.7942 57.2477L48.7808 64.8012ZM46.7897 53.2722V53.0734C46.7897 52.0795 46.5906 51.2844 46.1924 50.8868C45.7942 50.4893 45.1969 50.2905 44.4004 50.2905H42.4094V56.2538H44.4004C45.9933 56.2538 46.7897 55.2599 46.7897 53.2722Z" fill="#0D0D0C"/>
<path d="M51.5684 64.8012H49.9756V48.7003H51.5684V64.8012Z" fill="#0D0D0C"/>
<path d="M61.1259 48.7003L57.542 64.8012H56.1482L52.3652 48.7003H54.1572L56.5464 59.8318L56.9447 61.8196L57.3429 59.8318L59.7321 48.7003H61.1259Z" fill="#0D0D0C"/>
<path d="M68.6913 64.8012H67.0984L66.302 61.422H62.1208L61.3244 64.8012H59.7315L63.5145 48.7003H64.9083L68.6913 64.8012ZM65.9038 60.0306L65.5056 58.4404C65.3065 57.2477 64.9083 56.2538 64.7092 55.0612L64.311 53.2722L64.1119 51.682L63.7137 53.2722L62.3199 59.8318H65.9038V60.0306Z" fill="#0D0D0C"/>
<path d="M74.6648 50.0917H71.6782V64.6024H70.0854V50.0917H67.0988V48.7003H74.6648V50.0917Z" fill="#0D0D0C"/>
<path d="M82.0319 64.8012H75.2623V48.7003H82.0319V50.0917H76.8552V55.8563H81.0364V57.2477H76.8552V63.211H82.0319V64.8012Z" fill="#0D0D0C"/>
<path d="M92.58 60.2294C92.58 63.4098 91.7881 65 89.1997 65C86.6113 65 85.2176 63.4098 85.2176 60.4281V53.2722C85.2176 51.4832 85.6158 50.2905 86.2131 49.6942C87.0095 48.8991 87.806 48.7003 89.0006 48.7003C91.3898 48.7003 92.7836 50.0917 92.7836 53.0734H90.9916C90.9916 52.0795 90.7925 51.2844 90.3943 50.8868C89.9961 50.4893 89.5979 50.2905 88.8015 50.2905C88.2042 50.2905 87.6068 50.4893 87.2086 50.8868C86.8104 51.2844 86.6113 52.2783 86.6113 53.4709V60.2294C86.6113 61.6208 86.8104 62.4159 87.2086 62.8134C87.6068 63.211 88.2042 63.4098 88.8015 63.4098C89.5979 63.4098 89.9961 63.211 90.3943 62.8134C90.7925 62.4159 90.9916 61.422 90.9916 60.0306V57.844H88.6024V56.4526H92.5845L92.58 60.2294Z" fill="#0D0D0C"/>
<path d="M117.472 60.4281C117.472 63.1317 116.264 64.8012 113.49 64.8012C111.241 64.8012 109.707 63.257 109.707 61.0245H111.3C111.3 61.8196 111.499 62.4159 111.897 62.8134C112.295 63.211 112.694 63.4098 113.49 63.4098C114.287 63.4098 114.884 63.211 115.282 62.8134C116.308 61.7896 116.016 59.3404 115.282 58.2416C114.938 57.5538 113.776 57.4184 113.092 57.2477C111.002 56.5523 110.105 55.1312 110.105 52.8746C110.105 50.0917 111.3 48.7003 113.689 48.7003C114.884 48.7003 115.68 48.8991 116.278 49.4954C116.875 50.0917 117.273 50.8868 117.273 52.2783H115.68C115.68 51.4832 115.481 50.8868 115.083 50.6881C114.884 50.2905 114.287 50.0917 113.689 50.0917C112.018 50.0917 111.698 51.2561 111.698 52.6758C111.698 54.6482 112.466 55.2031 114.287 55.6575C115.282 56.055 116.078 56.4526 116.477 56.8501C117.074 57.6453 117.472 58.8379 117.472 60.4281Z" fill="#0D0D0C"/>
<path d="M125.436 60.4281C125.436 63.1317 124.229 64.8012 121.454 64.8012C119.206 64.8012 117.671 63.257 117.671 61.0245H119.264C119.264 61.8196 119.463 62.4159 119.861 62.8134C120.26 63.211 120.658 63.4098 121.454 63.4098C122.251 63.4098 122.848 63.211 123.246 62.8134C124.272 61.7896 123.98 59.3404 123.246 58.2416C122.902 57.5538 121.74 57.4184 121.056 57.2477C118.907 56.5324 118.07 55.1261 118.07 52.8746C118.07 50.0917 119.264 48.7003 121.653 48.7003C122.848 48.7003 123.644 48.8991 124.242 49.4954C124.839 50.0917 125.237 50.8868 125.237 52.2783H123.644C123.644 51.0718 122.93 50.0917 121.653 50.0917C119.982 50.0917 119.662 51.2561 119.662 52.6758C119.662 54.6482 120.43 55.2031 122.251 55.6575C123.246 56.055 124.043 56.4526 124.441 56.8501C125.038 57.6453 125.436 58.8379 125.436 60.4281Z" fill="#0D0D0C"/>
<path d="M134.197 52.6758C134.197 55.0167 132.361 56.8501 130.016 56.8501C127.671 56.8501 125.835 55.0167 125.835 52.6758C125.835 50.3349 127.671 48.5015 130.016 48.5015C132.361 48.5015 134.197 50.3349 134.197 52.6758ZM130.016 49.2966C125.429 49.2966 125.335 56.1544 130.016 56.1544C134.678 56.1544 134.612 49.2966 130.016 49.2966ZM131.808 55.0611H131.012L130.016 53.0734H129.22V55.0611H128.622V50.4893H130.215C130.613 50.4893 131.012 50.6881 131.211 50.8868C131.41 51.0856 131.609 51.4832 131.609 51.8807C131.609 52.477 131.211 52.8746 130.613 53.0734L131.808 55.0611ZM131.012 51.8807C131.012 51.6819 131.012 51.4832 130.812 51.2844C130.613 51.0856 130.414 51.0856 130.215 51.0856H129.22V52.6758H130.215C130.692 52.6758 131.012 52.3275 131.012 51.8807Z" fill="#0D0D0C"/>
<path fill-rule="evenodd" clip-rule="evenodd" d="M94.7742 64.8012H101.146L101.52 63.211H101.544V64.8012H102.739L103.535 61.422H107.716L108.513 64.8012H110.106L106.323 48.7003H104.929L101.52 63.211H96.3671V48.7003H94.7742V64.8012ZM107.268 59.8318C106.594 57.1367 105.872 54.4404 105.526 51.682L103.734 59.8318H107.268Z" fill="#0D0D0C"/>
<path d="M101.146 64.8012H101.544V63.211H101.52L101.146 64.8012Z" fill="#0D0D0C"/>
<defs>
<linearGradient id="paint0_linear_13_740" x1="225.9" y1="32.2762" x2="264.298" y2="32.2762" gradientUnits="userSpaceOnUse">
<stop offset="0.0220321" stop-color="#0072B4"/>
<stop offset="0.5073" stop-color="#0068B1"/>
<stop offset="0.9872" stop-color="#0062AF"/>
</linearGradient>
<linearGradient id="paint1_linear_13_740" x1="58.8365" y1="19.2241" x2="247.319" y2="19.2241" gradientUnits="userSpaceOnUse">
<stop offset="0.0280201" stop-color="#003D8E"/>
<stop offset="0.5008" stop-color="#004D9F"/>
<stop offset="0.9965" stop-color="#0041A0"/>
</linearGradient>
<linearGradient id="paint2_linear_13_740" x1="195.51" y1="51.5849" x2="253.111" y2="51.5849" gradientUnits="userSpaceOnUse">
<stop offset="0.036665" stop-color="#0053A1"/>
<stop offset="0.5098" stop-color="#004FA3"/>
<stop offset="0.9838" stop-color="#004BA2"/>
</linearGradient>
<linearGradient id="paint3_linear_13_740" x1="5.10048" y1="32.2992" x2="212.31" y2="32.2992" gradientUnits="userSpaceOnUse">
<stop offset="0.00308255" stop-color="#0D0B5A"/>
<stop offset="0.5089" stop-color="#081D70"/>
<stop offset="0.9898" stop-color="#00308C"/>
</linearGradient>
</defs>
</svg>
