<svg width="130" height="130" viewBox="0 0 130 130" fill="none" xmlns="http://www.w3.org/2000/svg">
<g clip-path="url(#clip0_27_1056)">
<path d="M53.2368 76.6125C53.2368 77.065 53.086 77.5174 52.4827 77.3666C52.4827 77.9698 52.0303 78.4223 52.9352 78.4223C54.2925 78.4223 54.4433 76.3109 54.5941 75.2552C54.5941 74.9536 54.5941 74.3503 54.5941 74.0487H56.1022V78.2715H57.3087V72.993H53.5384C53.5384 74.1995 53.5384 75.406 53.2368 76.4617V76.6125Z" fill="#263B97"/>
<path d="M17.7959 55.9513H29.7101C29.8609 55.9513 30.3133 56.4037 30.3133 56.5545V68.0162H37.5523V56.5545C37.5523 56.4037 38.0047 55.9513 38.1555 55.9513H50.0697V50.3712H17.7959V55.9513Z" fill="#263B97"/>
<path d="M45.5454 76.1601H47.2043V75.1044H45.5454V74.0487H47.9584V72.993H44.3389V78.2715H47.9584V77.2158H45.3946V76.0093L45.5454 76.1601Z" fill="#263B97"/>
<path d="M22.622 77.2158V72.993H18.8517C18.8517 74.0487 18.8517 75.2552 18.8517 76.3109C18.8517 76.7633 18.55 77.3666 17.9468 77.2158V79.478H19.0025V78.2715H22.3203V79.478H23.376V77.2158C23.2252 77.2158 22.9236 77.2158 22.7728 77.2158H22.622ZM21.5663 77.3666H19.4549C19.9073 76.3109 19.9073 75.2552 19.9073 74.1995H21.4155V77.3666H21.5663Z" fill="#263B97"/>
<path d="M39.0605 75.5568C40.1162 74.8028 39.8146 73.2947 38.4573 72.993H35.7427V78.2715H38.4573C38.4573 78.2715 39.0605 78.1207 39.2114 77.9698C40.1162 77.3666 40.1162 75.8585 39.0605 75.406V75.5568ZM36.9492 74.0487H38.1557C38.4573 74.0487 38.6081 74.3503 38.6081 74.652C38.6081 74.8028 38.4573 75.2552 38.1557 75.2552H36.7984V74.0487H36.9492ZM38.6081 77.2158C38.6081 77.2158 38.4573 77.2158 38.3065 77.2158H36.7984V76.0093H38.1557C38.1557 76.0093 38.4573 76.0093 38.4573 76.1601C38.7589 76.3109 38.7589 76.9142 38.4573 77.065L38.6081 77.2158Z" fill="#263B97"/>
<path d="M28.8051 76.1601H30.4641V75.1044H28.8051V74.0487H31.2181V72.993H27.5986V78.2715H31.2181V77.2158H28.6543V76.0093L28.8051 76.1601Z" fill="#263B97"/>
<path d="M112.053 68.0162V57.007C111.299 51.1253 105.267 48.7123 100.592 52.181C96.5197 55.1972 92.7494 58.5151 88.6775 61.5313C88.3759 61.6821 88.0742 61.5313 87.7726 61.5313L87.6218 61.2297V50.6729H80.3828V61.3805C80.6844 66.0557 84.9072 69.0719 89.2807 67.8654C90.4872 67.5638 91.2413 66.9606 92.1462 66.2065C96.0673 63.3411 99.8376 60.174 103.759 57.1578C104.06 57.1578 104.513 57.1578 104.664 57.3086L104.814 57.761V68.1671H112.053V68.0162Z" fill="#263B97"/>
<path d="M108.132 73.1439V74.1995H109.64V78.4223H110.847V74.1995H112.355V73.1439H108.283H108.132Z" fill="#263B97"/>
<path d="M65 0C29.1067 0 0 29.1067 0 65C0 100.893 29.1067 130 65 130C100.893 130 130 100.893 130 65C130 29.1067 100.893 0 65 0ZM62.2854 121.102C30.0116 121.102 3.7703 94.8608 3.7703 62.587C3.7703 30.3132 30.0116 4.07193 62.2854 4.07193C94.5592 4.07193 120.8 30.3132 120.8 62.587C120.8 94.8608 94.5592 121.102 62.2854 121.102Z" fill="#263B97"/>
<path d="M102.552 75.1044H100.29V73.1439H99.0835V78.4223H100.29V76.1601H102.552V78.4223H103.608V73.1439H102.552V75.1044Z" fill="#263B97"/>
<path d="M51.2761 55.348C50.8237 56.8562 50.8237 60.0232 50.9745 61.5313C51.1253 64.8492 53.9907 67.7146 57.3086 67.8654H79.1763V62.2854H58.6659C58.5151 62.2854 58.0626 61.833 58.2135 61.6821C58.2135 60.0232 58.0626 58.0627 58.2135 56.4037C58.2135 56.2529 58.2135 56.1021 58.3643 55.9513L58.6659 55.6497H79.1763V50.0696H57.1578C54.4432 50.3712 51.8794 52.3318 51.1253 55.0464L51.2761 55.348Z" fill="#263B97"/>
<path d="M71.7866 78.2715H72.8422V74.0487H74.9536V78.2715H76.0093V72.993H71.6357V78.2715H71.7866Z" fill="#263B97"/>
<path d="M92.146 76.1601H93.8049V75.2552H92.146V74.1995H94.559V73.1439H91.0903V78.4223H94.7098V77.3666H92.2968V76.1601H92.146Z" fill="#263B97"/>
<path d="M64.246 72.993C60.6265 73.2947 61.2298 79.0255 65.0001 78.4223C68.1671 77.819 67.7147 72.6914 64.246 72.993ZM64.246 77.3666C62.8887 77.3666 62.5871 75.2552 63.3412 74.3503C63.6428 74.0487 64.0952 73.8979 64.5477 73.8979C66.3574 74.0487 66.3574 77.5174 64.0952 77.2158L64.246 77.3666Z" fill="#263B97"/>
<path d="M83.7009 75.1044L82.1928 73.1439H80.9863V78.4223H82.042V74.652C82.4944 75.1044 82.9469 75.8585 83.3993 76.4617C83.3993 76.4617 83.3993 76.6125 83.7009 76.6125C84.0026 76.6125 84.9074 74.8028 85.2091 74.652V78.4223H86.2648V73.1439H85.0583L83.7009 75.1044Z" fill="#263B97"/>
</g>
<defs>
<clipPath id="clip0_27_1056">
<rect width="130" height="130" fill="white"/>
</clipPath>
</defs>
</svg>
